<svg width="305" height="41" viewBox="0 0 305 41" fill="none" xmlns="http://www.w3.org/2000/svg">
<path d="M0 0.63742V40.2049H2.2172V20.4212H9.63536C12.6663 20.4212 15.2196 19.4914 17.2953 17.632C19.3513 15.8629 20.3793 13.4629 20.3793 10.432C20.3793 7.43642 19.3474 5.05412 17.2835 3.28508C15.2157 1.51997 12.6663 0.63742 9.63536 0.63742H0ZM9.58229 18.145H2.2172V2.90768H9.58229C12.055 2.90768 14.0481 3.53078 15.5616 4.77697C17.2599 6.14896 18.1091 8.03396 18.1091 10.432C18.1091 12.834 17.2973 14.7386 15.6737 16.146C14.0462 17.4787 12.0157 18.145 9.58229 18.145ZM83.9291 31.2713L81.6588 32.0555C83.3886 37.7754 87.2844 40.6354 93.3463 40.6354C95.3158 40.6354 97.0121 40.3838 98.4352 39.8806C102.693 38.2924 104.821 34.9804 104.821 29.9445C104.821 26.8074 103.748 24.1833 101.602 22.0723C100.827 21.2939 99.8131 20.5273 98.5591 19.7725C97.305 19.0138 95.8111 18.2472 94.0775 17.4728C91.2981 16.2069 89.4485 15.2143 88.5286 14.4949C86.905 13.0875 86.0932 11.4364 86.0932 9.54158C86.0932 7.43053 86.8696 5.73421 88.4225 4.45264C89.8652 3.22611 91.6696 2.61285 93.8357 2.61285C95.9114 2.61285 97.5979 3.02759 98.8952 3.85707C99.9251 4.45068 100.81 5.35289 101.549 6.5637L103.713 5.61431C101.818 2.15093 98.5531 0.419237 93.9183 0.419237C93.8986 0.419237 93.8711 0.419237 93.8357 0.419237C91.021 0.419237 88.6564 1.26641 86.7419 2.96076C84.7959 4.604 83.823 6.77009 83.823 9.45903C83.823 12.2541 84.7782 14.4831 86.6888 16.146C87.8249 17.172 89.9733 18.3887 93.134 19.7961C94.793 20.5352 96.159 21.2035 97.2323 21.801C98.3055 22.3946 99.0957 22.9273 99.6028 23.399C101.568 25.1288 102.551 27.3106 102.551 29.9445C102.551 32.7238 101.722 34.8349 100.063 36.2776C98.4549 37.6693 96.2534 38.3651 93.4583 38.3651C93.4229 38.3651 93.3856 38.3651 93.3463 38.3651C88.3694 38.3651 85.2303 36.0005 83.9291 31.2713ZM125.419 0.63742V40.2049H127.642V0.63742H125.419ZM148.399 0.63742V2.90768H157.167V40.2049H159.443V2.90768H168.183V0.63742H148.399ZM188.756 0.63742V40.2049H190.974V0.63742H188.756ZM212.002 20.4212C212.002 26.4123 213.906 31.3106 217.716 35.116C221.466 38.8703 226.319 40.7474 232.275 40.7474C232.31 40.7474 232.338 40.7474 232.357 40.7474C238.348 40.7474 243.247 38.8526 247.052 35.0629C250.861 31.2929 252.766 26.4123 252.766 20.4212C252.766 14.43 250.861 9.53175 247.052 5.72635C243.207 1.9524 238.309 0.0654297 232.357 0.0654297C226.366 0.0654297 221.468 1.97009 217.663 5.77942C213.889 9.54944 212.002 14.43 212.002 20.4212ZM214.278 20.4212C214.278 15.1337 215.978 10.7897 219.378 7.38925C222.779 3.98876 227.105 2.28852 232.357 2.28852C237.68 2.28852 242.038 3.99269 245.431 7.40104C248.804 10.7583 250.49 15.0983 250.49 20.4212C250.49 25.7794 248.804 30.1371 245.431 33.4944C242.038 36.8123 237.68 38.4811 232.357 38.5007C227.07 38.5007 222.73 36.7946 219.337 33.3823C215.98 30.029 214.294 25.7086 214.278 20.4212ZM273.199 0.336682V40.2049H275.416V6.61677L305 40.883V0.63742H302.724V34.9804L273.199 0.336682Z" fill="#3C3E3F"/>
</svg>
