<svg width="37" height="34" viewBox="0 0 37 34" fill="none" xmlns="http://www.w3.org/2000/svg">
<path d="M18.3957 27.2179C13.3805 27.2179 9.31489 23.1563 9.31489 18.146C9.31489 13.1358 13.3805 9.07417 18.3957 9.07417C23.4109 9.07417 27.4765 13.1358 27.4765 18.146C27.4765 23.1563 23.4109 27.2179 18.3957 27.2179ZM18.3957 0.251865C8.50349 0.251865 0.483765 8.26366 0.483765 18.146C0.483765 22.1081 1.77283 25.7694 3.95423 28.7335L7.29834 33.4065C11.0115 32.2479 18.3957 29.6831 18.3957 29.6831C18.3957 29.6831 26.2693 32.4282 29.5 33.3966L32.8372 28.7335C35.0186 25.7694 36.3076 22.1081 36.3076 18.146C36.3076 8.26366 28.2879 0.251865 18.3957 0.251865Z" fill="#5CE0E6"/>
</svg>
